<svg xmlns="http://www.w3.org/2000/svg" fill-rule="evenodd" clip-rule="evenodd" image-rendering="optimizeQuality" shape-rendering="geometricPrecision" text-rendering="geometricPrecision" viewBox="0 0 6555 6555"><path fill="#04599c" d="M5207 3593h1049c165 0 299 135 299 299v699c0 165-134 299-299 299H5207c-164 0-299-134-299-299v-699c0-164 135-299 299-299zm283 281c205 0 372 166 372 371s-167 372-372 372-371-167-371-372 166-371 371-371z"/><path fill="#1A1A1A" d="M745 1928h428c135 967 965 1712 1969 1712s1834-745 1969-1712h420c410 0 745 336 745 745v723c-7-1-13-1-20-1H5207c-273 0-497 224-497 497v699c0 274 224 498 497 498h1049c7 0 13-1 20-1v707c0 418-342 760-761 760H761c-419 0-761-342-761-760V2673c0-409 335-745 745-745z"/><path fill="#04599c" d="M3142 12c905 0 1639 734 1639 1639s-734 1639-1639 1639-1638-734-1638-1639S2237 12 3142 12zm0 2120-794-466 794-1326 795 1326-795 466zm-794-347 794 1177 795-1177-795 499-794-499z"/><path fill="none" d="M0 0h6555v6555H0z"/></svg>